<svg id="visual" viewBox="0 0 960 540" width="960" height="540" xmlns="http://www.w3.org/2000/svg" xmlns:xlink="http://www.w3.org/1999/xlink" version="1.1"><rect x="0" y="0" width="960" height="540" fill="#F8f9fa"></rect><g transform="translate(492.36494037509357 281.6877774223073)"><path d="M177.5 -214C220.8 -175.1 240.4 -110.5 255.6 -42.4C270.8 25.7 281.5 97.2 253.1 145.9C224.7 194.6 157.2 220.4 94 231.9C30.9 243.4 -27.8 240.6 -90.1 226.9C-152.4 213.2 -218.2 188.6 -256.3 139.7C-294.4 90.8 -304.8 17.6 -287.4 -45.5C-270.1 -108.5 -225 -161.5 -172.5 -198.8C-120 -236 -60 -257.5 3.5 -261.7C67.1 -265.9 134.1 -252.8 177.5 -214" fill="#f97521"></path></g></svg>