<?xml version="1.0" standalone="no"?>
<svg viewBox="0 0 200 200" xmlns="http://www.w3.org/2000/svg">
  <path fill="#F47321" d="M30.6,-45C36.8,-43.6,37,-30.3,46.1,-18.6C55.2,-7,73.2,3.1,77.6,15C81.9,27,72.5,40.9,59.6,46.4C46.7,52,30.2,49.3,18.1,45.4C6,41.6,-1.6,36.6,-11,34.9C-20.4,33.3,-31.4,35.1,-41.8,31.5C-52.3,28,-62,19.2,-60.5,10.4C-59.1,1.7,-46.5,-6.9,-37.4,-13.1C-28.4,-19.3,-22.9,-23.2,-17.3,-24.8C-11.6,-26.5,-5.8,-25.8,3.2,-30.8C12.2,-35.8,24.4,-46.4,30.6,-45Z" transform="translate(100 100)" />
</svg>
