<?xml version="1.0" standalone="no"?>
<svg viewBox="0 0 200 200" xmlns="http://www.w3.org/2000/svg">
  <path fill="#F47321" d="M40.5,-59.7C55,-53.7,71,-46.7,78.5,-34.6C86,-22.4,85,-5.2,82.6,11.9C80.3,29.1,76.5,46.1,65.8,55.4C55.1,64.7,37.5,66.3,21.7,68.5C5.8,70.7,-8.3,73.6,-19.8,69.4C-31.4,65.2,-40.4,53.9,-50.3,43.2C-60.2,32.4,-71,22.1,-77.6,8.2C-84.2,-5.7,-86.6,-23.2,-81.7,-38.8C-76.9,-54.4,-64.8,-68.2,-49.9,-74C-35.1,-79.8,-17.6,-77.7,-2.3,-74.2C13,-70.6,26,-65.7,40.5,-59.7Z" transform="translate(100 100)" />
</svg>
