<?xml version="1.0" standalone="no"?>
<svg viewBox="0 0 200 200" xmlns="http://www.w3.org/2000/svg">
  <path fill="#F97521" d="M47.5,-72.1C60.1,-65.9,67.7,-50.1,73.3,-34.5C78.9,-18.8,82.4,-3.2,79,10.4C75.6,24.1,65.3,35.9,54.3,45.2C43.4,54.4,31.6,61.2,18.5,66.6C5.4,72.1,-9.1,76.4,-24.7,75.6C-40.2,74.9,-56.7,69.1,-67,57.8C-77.4,46.4,-81.5,29.4,-77,15.3C-72.5,1.2,-59.3,-9.9,-53.4,-25C-47.4,-40,-48.8,-59,-41.1,-67.6C-33.4,-76.1,-16.7,-74.1,0.4,-74.7C17.5,-75.3,34.9,-78.4,47.5,-72.1Z" transform="translate(100 100)" />
</svg>
