<?xml version="1.0" standalone="no"?>
<svg viewBox="0 0 200 200" xmlns="http://www.w3.org/2000/svg">
  <path fill="#F47321" d="M47.5,-72.2C62.6,-64.3,76.4,-52.8,83.9,-37.9C91.5,-23,92.7,-4.7,87.5,10.7C82.3,26.1,70.8,38.7,59.4,50.9C47.9,63,36.7,74.7,22.5,81C8.2,87.2,-8.9,88,-25.4,84.2C-42,80.5,-57.9,72.2,-66.2,59.2C-74.4,46.3,-75.1,28.6,-77.6,11.1C-80.2,-6.3,-84.7,-23.5,-79.1,-36.2C-73.4,-48.9,-57.6,-57,-42.8,-64.9C-27.9,-72.9,-14,-80.6,1.1,-82.4C16.2,-84.2,32.5,-80,47.5,-72.2Z" transform="translate(100 100)" />
</svg>
