
<!--=-===========================================  -->
<!-- <svg xmlns="http://www.w3.org/2000/svg" xmlns:xlink="http://www.w3.org/1999/xlink" style="margin:auto;background:#f1f2f3;display:block;z-index:1;position:relative" width="2209" height="955" preserveAspectRatio="xMidYMid" viewBox="0 0 2209 955">
<g transform="translate(1104.5,477.5) scale(1,1) translate(-1104.5,-477.5)"><g transform="translate(1715.4083478182652,3.6309114682013046) scale(100)" opacity="0.4">
  <path d="M7.499554999999999 0 C7.499554999999999 1.7782449999999999 7.78566817164017 2.4417171558473405 6.89654567164017 3.9817224999999996 S5.2897828441526595 5.605682647078605 3.7497775000000004 6.494805147078605 S1.7782450000000003 7.963445 4.876203714717997e-16 7.963445 S-2.2097721558473387 7.383927647078605 -3.7497774999999978 6.494805147078606 S-6.007423171640168 5.521727844152661 -6.896545671640168 3.9817225000000027 S-7.499554999999999 1.7782450000000007 -7.499554999999999 9.184306025779528e-16 S-7.78566817164017 -2.4417171558473383 -6.896545671640171 -3.981722499999998 S-5.289782844152661 -5.605682647078603 -3.7497775000000027 -6.494805147078604 S-1.7782450000000014 -7.963445 -1.4628611144153991e-15 -7.963445 S2.209772155847335 -7.3839276470786075 3.7497774999999947 -6.494805147078608 S6.007423171640166 -5.521727844152662 6.896545671640167 -3.9817225000000036 S7.499554999999999 -1.7782450000000016 7.499554999999999 -1.8368612051559056e-15" fill="#014878" stroke-width="0">
    <animateTransform attributeName="transform" type="rotate" dur="10s" repeatCount="indefinite" values="0;60"></animateTransform>
  </path>
</g><g transform="translate(1837.5900173819182,-91.14290623815839) scale(100)" opacity="0.4">
  <path d="M8.999465999999998 0 C8.999465999999998 2.1338939999999997 9.342801805968202 2.9300605870168086 8.275854805968203 4.778066999999999 S6.3477394129831906 6.726819176494325 4.499733 7.793766176494325 S2.133894 9.556134 5.851444457661596e-16 9.556134 S-2.6517265870168067 8.860713176494325 -4.499732999999997 7.793766176494326 S-7.208907805968201 6.626073412983194 -8.275854805968201 4.778067000000004 S-8.999465999999998 2.1338940000000006 -8.999465999999998 1.1021167230935431e-15 S-9.342801805968204 -2.9300605870168064 -8.275854805968205 -4.778066999999997 S-6.347739412983193 -6.726819176494323 -4.499733000000003 -7.793766176494324 S-2.1338940000000015 -9.556134 -1.7554333372984788e-15 -9.556134 S2.6517265870168014 -8.860713176494327 4.499732999999993 -7.793766176494329 S7.208907805968199 -6.626073412983194 8.2758548059682 -4.7780670000000045 S8.999465999999998 -2.133894000000002 8.999465999999998 -2.2042334461870863e-15" fill="#024978" stroke-width="0">
    <animateTransform attributeName="transform" type="rotate" dur="5s" repeatCount="indefinite" values="0;60"></animateTransform>
  </path>
</g><g transform="translate(2130.826024334685,-318.6000687334217) scale(100)" opacity="0.4">
  <path d="M12.599252399999997 0 C12.599252399999997 2.9874515999999995 13.079922528355484 4.1020848218235315 11.586196728355484 6.689293799999999 S8.886835178176467 9.417546847092055 6.2996262000000005 10.911272647092055 S2.9874516000000004 13.3785876 8.192022240726235e-16 13.3785876 S-3.712417221823529 12.404998447092055 -6.299626199999996 10.911272647092057 S-10.092470928355482 9.276502778176472 -11.586196728355482 6.689293800000004 S-12.599252399999997 2.987451600000001 -12.599252399999997 1.5429634123309604e-15 S-13.079922528355484 -4.102084821823529 -11.586196728355485 -6.689293799999996 S-8.88683517817647 -9.417546847092051 -6.299626200000004 -10.911272647092053 S-2.987451600000002 -13.3785876 -2.45760667221787e-15 -13.3785876 S3.7124172218235225 -12.404998447092058 6.299626199999991 -10.91127264709206 S10.092470928355478 -9.276502778176472 11.58619672835548 -6.689293800000006 S12.599252399999997 -2.9874516000000026 12.599252399999997 -3.085926824661921e-15" fill="#034978" stroke-width="0">
    <animateTransform attributeName="transform" type="rotate" dur="3.3333333333333335s" repeatCount="indefinite" values="0;60"></animateTransform>
  </path>
</g></g>
</svg> -->
<!--=-===========================================  -->
<!-- <svg xmlns="http://www.w3.org/2000/svg" xmlns:xlink="http://www.w3.org/1999/xlink" style="margin:auto;background:#f1f2f3;display:block;z-index:1;position:relative" width="2209" height="955" preserveAspectRatio="xMidYMid" viewBox="0 0 2209 955">
<g transform="translate(1104.5,477.5) scale(1,1) translate(-1104.5,-477.5)"><g transform="translate(1793.3816941762366,126.49724512636942) scale(100)" opacity="0.4">
  <path d="M7.499554999999999 0 C7.499554999999999 1.7782449999999999 7.78566817164017 2.4417171558473405 6.89654567164017 3.9817224999999996 S5.2897828441526595 5.605682647078605 3.7497775000000004 6.494805147078605 S1.7782450000000003 7.963445 4.876203714717997e-16 7.963445 S-2.2097721558473387 7.383927647078605 -3.7497774999999978 6.494805147078606 S-6.007423171640168 5.521727844152661 -6.896545671640168 3.9817225000000027 S-7.499554999999999 1.7782450000000007 -7.499554999999999 9.184306025779528e-16 S-7.78566817164017 -2.4417171558473383 -6.896545671640171 -3.981722499999998 S-5.289782844152661 -5.605682647078603 -3.7497775000000027 -6.494805147078604 S-1.7782450000000014 -7.963445 -1.4628611144153991e-15 -7.963445 S2.209772155847335 -7.3839276470786075 3.7497774999999947 -6.494805147078608 S6.007423171640166 -5.521727844152662 6.896545671640167 -3.9817225000000036 S7.499554999999999 -1.7782450000000016 7.499554999999999 -1.8368612051559056e-15" fill="#014878" stroke-width="0">
    <animateTransform attributeName="transform" type="rotate" dur="10s" repeatCount="indefinite" values="0;60"></animateTransform>
  </path>
</g><g transform="translate(1931.158033011484,56.29669415164335) scale(100)" opacity="0.4">
  <path d="M8.999465999999998 0 C8.999465999999998 2.1338939999999997 9.342801805968202 2.9300605870168086 8.275854805968203 4.778066999999999 S6.3477394129831906 6.726819176494325 4.499733 7.793766176494325 S2.133894 9.556134 5.851444457661596e-16 9.556134 S-2.6517265870168067 8.860713176494325 -4.499732999999997 7.793766176494326 S-7.208907805968201 6.626073412983194 -8.275854805968201 4.778067000000004 S-8.999465999999998 2.1338940000000006 -8.999465999999998 1.1021167230935431e-15 S-9.342801805968204 -2.9300605870168064 -8.275854805968205 -4.778066999999997 S-6.347739412983193 -6.726819176494323 -4.499733000000003 -7.793766176494324 S-2.1338940000000015 -9.556134 -1.7554333372984788e-15 -9.556134 S2.6517265870168014 -8.860713176494327 4.499732999999993 -7.793766176494329 S7.208907805968199 -6.626073412983194 8.2758548059682 -4.7780670000000045 S8.999465999999998 -2.133894000000002 8.999465999999998 -2.2042334461870863e-15" fill="#024978" stroke-width="0">
    <animateTransform attributeName="transform" type="rotate" dur="5s" repeatCount="indefinite" values="0;60"></animateTransform>
  </path>
</g><g transform="translate(2261.8212462160773,-112.18462818769933) scale(100)" opacity="0.4">
  <path d="M12.599252399999997 0 C12.599252399999997 2.9874515999999995 13.079922528355484 4.1020848218235315 11.586196728355484 6.689293799999999 S8.886835178176467 9.417546847092055 6.2996262000000005 10.911272647092055 S2.9874516000000004 13.3785876 8.192022240726235e-16 13.3785876 S-3.712417221823529 12.404998447092055 -6.299626199999996 10.911272647092057 S-10.092470928355482 9.276502778176472 -11.586196728355482 6.689293800000004 S-12.599252399999997 2.987451600000001 -12.599252399999997 1.5429634123309604e-15 S-13.079922528355484 -4.102084821823529 -11.586196728355485 -6.689293799999996 S-8.88683517817647 -9.417546847092051 -6.299626200000004 -10.911272647092053 S-2.987451600000002 -13.3785876 -2.45760667221787e-15 -13.3785876 S3.7124172218235225 -12.404998447092058 6.299626199999991 -10.91127264709206 S10.092470928355478 -9.276502778176472 11.58619672835548 -6.689293800000006 S12.599252399999997 -2.9874516000000026 12.599252399999997 -3.085926824661921e-15" fill="#034978" stroke-width="0">
    <animateTransform attributeName="transform" type="rotate" dur="3.3333333333333335s" repeatCount="indefinite" values="0;60"></animateTransform>
  </path>
</g></g>
</svg> -->
<!--=-===========================================  -->
<!-- <svg xmlns="http://www.w3.org/2000/svg" xmlns:xlink="http://www.w3.org/1999/xlink" style="margin:auto;background:#f1f2f3;display:block;z-index:1;position:relative" width="3000" height="955" preserveAspectRatio="xMidYMid" viewBox="0 0 3000 955">
<g transform="translate(1500,477.5) scale(1,1) translate(-1500,-477.5)"><g transform="translate(2329.662762994475,-166.05240633562516) scale(100)" opacity="0.4">
  <path d="M10.185 0 C10.185 2.415 10.573564741928704 3.3160486498605795 9.366064741928705 5.407499999999999 S7.18395135013942 7.612968737544507 5.092500000000001 8.820468737544507 S2.4150000000000005 10.815 6.622277566389312e-16 10.815 S-3.001048649860578 10.027968737544509 -5.092499999999998 8.820468737544509 S-8.1585647419287 7.498951350139422 -9.366064741928701 5.407500000000003 S-10.185 2.4150000000000014 -10.185 1.2473027649315794e-15 S-10.573564741928704 -3.3160486498605772 -9.366064741928705 -5.407499999999997 S-7.183951350139424 -7.612968737544506 -5.092500000000005 -8.820468737544507 S-2.415000000000002 -10.815 -1.9866832699167937e-15 -10.815 S3.001048649860573 -10.02796873754451 5.092499999999993 -8.820468737544513 S8.1585647419287 -7.498951350139423 9.366064741928701 -5.407500000000004 S10.185 -2.4150000000000027 10.185 -2.4946055298631588e-15" fill="#014878" stroke-width="0">
    <animateTransform attributeName="transform" type="rotate" dur="10s" repeatCount="indefinite" values="0;60"></animateTransform>
  </path>
</g><g transform="translate(2495.59531559337,-294.7628876027502) scale(100)" opacity="0.4">
  <path d="M12.222 0 C12.222 2.8979999999999997 12.688277690314445 3.9792583798326957 11.239277690314445 6.488999999999999 S8.620741620167305 9.135562485053407 6.1110000000000015 10.584562485053407 S2.8980000000000006 12.978 7.946733079667175e-16 12.978 S-3.601258379832694 12.033562485053409 -6.110999999999997 10.584562485053409 S-9.79027769031444 8.998741620167307 -11.239277690314442 6.489000000000004 S-12.222 2.898000000000001 -12.222 1.496763317917895e-15 S-12.688277690314447 -3.979258379832693 -11.239277690314447 -6.488999999999996 S-8.620741620167308 -9.135562485053406 -6.111000000000005 -10.584562485053407 S-2.898000000000002 -12.978 -2.3840199239001524e-15 -12.978 S3.6012583798326876 -12.033562485053412 6.110999999999992 -10.584562485053414 S9.79027769031444 -8.998741620167307 11.239277690314442 -6.489000000000005 S12.222 -2.898000000000003 12.222 -2.99352663583579e-15" fill="#024978" stroke-width="0">
    <animateTransform attributeName="transform" type="rotate" dur="5s" repeatCount="indefinite" values="0;60"></animateTransform>
  </path>
</g><g transform="translate(2893.8334418307177,-603.6680426438504) scale(100)" opacity="0.4">
  <path d="M17.1108 0 C17.1108 4.0572 17.763588766440225 5.570961731765774 15.734988766440225 9.084599999999998 S12.069038268234227 12.789787479074771 8.555400000000002 14.818387479074772 S4.057200000000001 18.1692 1.1125426311534044e-15 18.1692 S-5.041761731765773 16.846987479074773 -8.555399999999997 14.818387479074774 S-13.706388766440218 12.59823826823423 -15.73498876644022 9.084600000000005 S-17.1108 4.057200000000002 -17.1108 2.0954686450850534e-15 S-17.763588766440225 -5.570961731765769 -15.734988766440226 -9.084599999999995 S-12.06903826823423 -12.789787479074768 -8.555400000000008 -14.81838747907477 S-4.0572000000000035 -18.1692 -3.337627893460213e-15 -18.1692 S5.041761731765764 -16.846987479074777 8.55539999999999 -14.818387479074781 S13.706388766440217 -12.598238268234232 15.734988766440217 -9.084600000000009 S17.1108 -4.057200000000004 17.1108 -4.190937290170107e-15" fill="#034978" stroke-width="0">
    <animateTransform attributeName="transform" type="rotate" dur="3.3333333333333335s" repeatCount="indefinite" values="0;60"></animateTransform>
  </path>
</g></g>
</svg> -->
<!--=-===========================================  -->
<!-- <svg xmlns="http://www.w3.org/2000/svg" xmlns:xlink="http://www.w3.org/1999/xlink" style="margin:auto;background:#f1f2f3;display:block;z-index:1;position:relative" width="1991" height="955" preserveAspectRatio="xMidYMid" viewBox="0 0 1991 955">
<g transform="translate(995.5,477.5) scale(1,1) translate(-995.5,-477.5)"><g transform="translate(1635.0373109078823,200.7474924111532) scale(100)" opacity="0.4">
  <path d="M6.689759999999999 0 C6.689759999999999 1.6027549999999997 7.077671447322735 2.2355934539574713 6.276293947322735 3.623619999999999 S4.732906546042528 4.992124605220985 3.3448800000000003 5.793502105220985 S1.6027550000000002 7.247239999999999 4.437654634326331e-16 7.247239999999999 S-1.9568534539574702 6.594879605220985 -3.344879999999998 5.793502105220986 S-5.474916447322733 5.011646546042529 -6.276293947322733 3.6236200000000016 S-6.689759999999999 1.6027550000000006 -6.689759999999999 8.192593171063996e-16 S-7.077671447322735 -2.235593453957469 -6.276293947322736 -3.623619999999997 S-4.73290654604253 -4.992124605220983 -3.3448800000000025 -5.793502105220984 S-1.602755000000001 -7.247239999999999 -1.3312963902978993e-15 -7.247239999999999 S1.9568534539574667 -6.594879605220987 3.344879999999995 -5.793502105220988 S5.474916447322732 -5.011646546042529 6.276293947322732 -3.6236200000000025 S6.689759999999999 -1.6027550000000013 6.689759999999999 -1.6385186342127992e-15" fill="#014878" stroke-width="0">
    <animateTransform attributeName="transform" type="rotate" dur="10s" repeatCount="indefinite" values="0;60"></animateTransform>
  </path>
</g><g transform="translate(1762.9447730894585,145.39699089338376) scale(100)" opacity="0.4">
  <path d="M8.027712 0 C8.027712 1.9233059999999997 8.493205736787282 2.6827121447489657 7.531552736787282 4.348343999999999 S5.6794878552510335 5.990549526265182 4.0138560000000005 6.952202526265182 S1.9233060000000002 8.696688 5.325185561191598e-16 8.696688 S-2.3482241447489645 7.913855526265182 -4.013855999999998 6.952202526265183 S-6.56989973678728 6.013975855251036 -7.5315527367872805 4.348344000000003 S-8.027712 1.9233060000000006 -8.027712 9.831111805276796e-16 S-8.493205736787283 -2.6827121447489635 -7.531552736787283 -4.348343999999997 S-5.679487855251036 -5.9905495262651804 -4.013856000000003 -6.952202526265181 S-1.9233060000000013 -8.696688 -1.5975556683574794e-15 -8.696688 S2.3482241447489605 -7.913855526265184 4.013855999999994 -6.952202526265186 S6.569899736787279 -6.0139758552510365 7.53155273678728 -4.3483440000000035 S8.027712 -1.9233060000000017 8.027712 -1.9662223610553592e-15" fill="#024978" stroke-width="0">
    <animateTransform attributeName="transform" type="rotate" dur="5s" repeatCount="indefinite" values="0;60"></animateTransform>
  </path>
</g><g transform="translate(2069.922682325242,12.555787250737296) scale(100)" opacity="0.4">
  <path d="M11.238796799999998 0 C11.238796799999998 2.6926283999999994 11.890488031502194 3.7557970026485514 10.544173831502194 6.087681599999998 S7.951282997351446 8.386769336771254 5.6193984 9.733083536771254 S2.6926284000000003 12.175363199999998 7.455259785668237e-16 12.175363199999998 S-3.2875138026485495 11.079397736771254 -5.619398399999996 9.733083536771256 S-9.19785963150219 8.41956619735145 -10.54417383150219 6.087681600000003 S-11.238796799999998 2.6926284000000007 -11.238796799999998 1.3763556527387513e-15 S-11.890488031502194 -3.7557970026485483 -10.544173831502196 -6.087681599999995 S-7.95128299735145 -8.386769336771254 -5.619398400000004 -9.733083536771254 S-2.6926284000000016 -12.175363199999998 -2.2365779357004707e-15 -12.175363199999998 S3.287513802648544 -11.079397736771257 5.619398399999992 -9.73308353677126 S9.19785963150219 -8.41956619735145 10.54417383150219 -6.087681600000004 S11.238796799999998 -2.692628400000002 11.238796799999998 -2.7527113054775025e-15" fill="#034978" stroke-width="0">
    <animateTransform attributeName="transform" type="rotate" dur="3.3333333333333335s" repeatCount="indefinite" values="0;60"></animateTransform>
  </path>
</g></g>
</svg> -->
<!--=-===========================================  -->
<!-- <svg xmlns="http://www.w3.org/2000/svg" xmlns:xlink="http://www.w3.org/1999/xlink" style="margin:auto;background:#f1f2f3;display:block;z-index:1;position:relative" width="1991" height="955" preserveAspectRatio="xMidYMid" viewBox="0 0 1991 955">
<g transform="translate(995.5,477.5) scale(1,1) translate(-995.5,-477.5)"><g transform="translate(1635.0373109078823,200.7474924111532) scale(100)" opacity="0.4">
  <path d="M6.689759999999999 0 C6.689759999999999 1.6027549999999997 7.077671447322735 2.2355934539574713 6.276293947322735 3.623619999999999 S4.732906546042528 4.992124605220985 3.3448800000000003 5.793502105220985 S1.6027550000000002 7.247239999999999 4.437654634326331e-16 7.247239999999999 S-1.9568534539574702 6.594879605220985 -3.344879999999998 5.793502105220986 S-5.474916447322733 5.011646546042529 -6.276293947322733 3.6236200000000016 S-6.689759999999999 1.6027550000000006 -6.689759999999999 8.192593171063996e-16 S-7.077671447322735 -2.235593453957469 -6.276293947322736 -3.623619999999997 S-4.73290654604253 -4.992124605220983 -3.3448800000000025 -5.793502105220984 S-1.602755000000001 -7.247239999999999 -1.3312963902978993e-15 -7.247239999999999 S1.9568534539574667 -6.594879605220987 3.344879999999995 -5.793502105220988 S5.474916447322732 -5.011646546042529 6.276293947322732 -3.6236200000000025 S6.689759999999999 -1.6027550000000013 6.689759999999999 -1.6385186342127992e-15" fill="#014878" stroke-width="0">
    <animateTransform attributeName="transform" type="rotate" dur="10s" repeatCount="indefinite" values="0;60"></animateTransform>
  </path>
</g><g transform="translate(1762.9447730894585,145.39699089338376) scale(100)" opacity="0.4">
  <path d="M8.027712 0 C8.027712 1.9233059999999997 8.493205736787282 2.6827121447489657 7.531552736787282 4.348343999999999 S5.6794878552510335 5.990549526265182 4.0138560000000005 6.952202526265182 S1.9233060000000002 8.696688 5.325185561191598e-16 8.696688 S-2.3482241447489645 7.913855526265182 -4.013855999999998 6.952202526265183 S-6.56989973678728 6.013975855251036 -7.5315527367872805 4.348344000000003 S-8.027712 1.9233060000000006 -8.027712 9.831111805276796e-16 S-8.493205736787283 -2.6827121447489635 -7.531552736787283 -4.348343999999997 S-5.679487855251036 -5.9905495262651804 -4.013856000000003 -6.952202526265181 S-1.9233060000000013 -8.696688 -1.5975556683574794e-15 -8.696688 S2.3482241447489605 -7.913855526265184 4.013855999999994 -6.952202526265186 S6.569899736787279 -6.0139758552510365 7.53155273678728 -4.3483440000000035 S8.027712 -1.9233060000000017 8.027712 -1.9662223610553592e-15" fill="#024978" stroke-width="0">
    <animateTransform attributeName="transform" type="rotate" dur="5s" repeatCount="indefinite" values="0;60"></animateTransform>
  </path>
</g><g transform="translate(2069.922682325242,12.555787250737296) scale(100)" opacity="0.4">
  <path d="M11.238796799999998 0 C11.238796799999998 2.6926283999999994 11.890488031502194 3.7557970026485514 10.544173831502194 6.087681599999998 S7.951282997351446 8.386769336771254 5.6193984 9.733083536771254 S2.6926284000000003 12.175363199999998 7.455259785668237e-16 12.175363199999998 S-3.2875138026485495 11.079397736771254 -5.619398399999996 9.733083536771256 S-9.19785963150219 8.41956619735145 -10.54417383150219 6.087681600000003 S-11.238796799999998 2.6926284000000007 -11.238796799999998 1.3763556527387513e-15 S-11.890488031502194 -3.7557970026485483 -10.544173831502196 -6.087681599999995 S-7.95128299735145 -8.386769336771254 -5.619398400000004 -9.733083536771254 S-2.6926284000000016 -12.175363199999998 -2.2365779357004707e-15 -12.175363199999998 S3.287513802648544 -11.079397736771257 5.619398399999992 -9.73308353677126 S9.19785963150219 -8.41956619735145 10.54417383150219 -6.087681600000004 S11.238796799999998 -2.692628400000002 11.238796799999998 -2.7527113054775025e-15" fill="#034978" stroke-width="0">
    <animateTransform attributeName="transform" type="rotate" dur="3.3333333333333335s" repeatCount="indefinite" values="0;60"></animateTransform>
  </path>
</g></g>
</svg> -->
<!--=-===========================================  -->
<!-- <svg xmlns="http://www.w3.org/2000/svg" xmlns:xlink="http://www.w3.org/1999/xlink" style="margin:auto;background:#f8f9fa;display:block;z-index:1;position:relative" width="1920" height="955" preserveAspectRatio="xMidYMid" viewBox="0 0 1920 955">
<g transform="translate(960,477.5) scale(1,1) translate(-960,-477.5)"><g transform="translate(1490.984168316464,65.62645994519988) scale(100)" opacity="0.4">
  <path d="M6.5184 0 C6.5184 1.5455999999999999 6.767081434834371 2.122271135910771 5.994281434834371 3.4607999999999994 S4.597728864089229 4.872299992028484 3.2592000000000008 5.645099992028484 S1.5456000000000003 6.9216 4.2382576424891597e-16 6.9216 S-1.9206711359107702 6.4178999920284845 -3.2591999999999985 5.645099992028485 S-5.221481434834369 4.79932886408923 -5.994281434834369 3.460800000000002 S-6.5184 1.5456000000000008 -6.5184 7.982737695562107e-16 S-6.76708143483437 -2.1222711359107693 -5.994281434834371 -3.460799999999998 S-4.597728864089231 -4.872299992028482 -3.259200000000003 -5.6450999920284834 S-1.5456000000000012 -6.9216 -1.2714772927467478e-15 -6.9216 S1.9206711359107667 -6.417899992028486 3.2591999999999954 -5.645099992028487 S5.221481434834368 -4.799328864089231 5.9942814348343685 -3.460800000000003 S6.5184 -1.5456000000000014 6.5184 -1.5965475391124214e-15" fill="#f97521" stroke-width="0">
    <animateTransform attributeName="transform" type="rotate" dur="10s" repeatCount="indefinite" values="0;60"></animateTransform>
  </path>
</g><g transform="translate(1597.1810019797567,-16.74824806576015) scale(100)" opacity="0.4">
  <path d="M7.82208 0 C7.82208 1.85472 8.120497721801245 2.546725363092925 7.1931377218012456 4.152959999999999 S5.517274636907075 5.846759990434181 3.9110400000000007 6.774119990434182 S1.8547200000000004 8.30592 5.085909170986992e-16 8.30592 S-2.3048053630929237 7.701479990434182 -3.911039999999998 6.7741199904341824 S-6.265777721801243 5.759194636907076 -7.193137721801244 4.152960000000003 S-7.82208 1.8547200000000008 -7.82208 9.579285234674527e-16 S-8.120497721801247 -2.546725363092923 -7.193137721801246 -4.1529599999999975 S-5.517274636907077 -5.84675999043418 -3.9110400000000034 -6.774119990434181 S-1.8547200000000015 -8.30592 -1.5257727512960975e-15 -8.30592 S2.3048053630929197 -7.7014799904341835 3.9110399999999945 -6.774119990434185 S6.265777721801242 -5.759194636907077 7.193137721801243 -4.152960000000004 S7.822079999999999 -1.854720000000002 7.82208 -1.9158570469349055e-15" fill="#f97521" stroke-width="0">
    <animateTransform attributeName="transform" type="rotate" dur="5s" repeatCount="indefinite" values="0;60"></animateTransform>
  </path>
</g><g transform="translate(1852.0534027716594,-214.4475472920641) scale(100)" opacity="0.4">
  <path d="M10.950911999999999 0 C10.950911999999999 2.5966079999999994 11.36869681052174 3.5654155083300947 10.07039281052174 5.814143999999998 S7.724184491669903 8.185463986607854 5.475456 9.483767986607853 S2.5966080000000002 11.628287999999998 7.120272839381788e-16 11.628287999999998 S-3.2267275083300935 10.782071986607853 -5.475455999999997 9.483767986607853 S-8.772088810521739 8.062872491669905 -10.070392810521739 5.814144000000002 S-10.950911999999999 2.5966080000000007 -10.950911999999999 1.3410999328544339e-15 S-11.36869681052174 -3.5654155083300916 -10.070392810521742 -5.814143999999995 S-7.724184491669907 -8.18546398660785 -5.475456000000004 -9.483767986607852 S-2.5966080000000016 -11.628287999999998 -2.136081851814536e-15 -11.628287999999998 S3.226727508330088 -10.782071986607857 5.475455999999992 -9.483767986607859 S8.772088810521737 -8.062872491669907 10.070392810521737 -5.814144000000004 S10.950911999999999 -2.596608000000002 10.950911999999999 -2.6821998657088678e-15" fill="#f97521" stroke-width="0">
    <animateTransform attributeName="transform" type="rotate" dur="3.3333333333333335s" repeatCount="indefinite" values="0;60"></animateTransform>
  </path>
</g></g>
</svg> -->
<!--=-===========================================  -->
<svg xmlns="http://www.w3.org/2000/svg" xmlns:xlink="http://www.w3.org/1999/xlink" style="margin:auto;background:#f8f9fa;display:block;z-index:1;position:relative" width="1920" height="955" preserveAspectRatio="xMidYMid" viewBox="0 0 1920 955">
<g transform="translate(960,477.5) scale(1,1) translate(-960,-477.5)"><g transform="translate(1490.984168316464,65.62645994519988) scale(100)" opacity="0.4">
  <path d="M6.5184 0 C6.5184 1.5455999999999999 6.767081434834371 2.122271135910771 5.994281434834371 3.4607999999999994 S4.597728864089229 4.872299992028484 3.2592000000000008 5.645099992028484 S1.5456000000000003 6.9216 4.2382576424891597e-16 6.9216 S-1.9206711359107702 6.4178999920284845 -3.2591999999999985 5.645099992028485 S-5.221481434834369 4.79932886408923 -5.994281434834369 3.460800000000002 S-6.5184 1.5456000000000008 -6.5184 7.982737695562107e-16 S-6.76708143483437 -2.1222711359107693 -5.994281434834371 -3.460799999999998 S-4.597728864089231 -4.872299992028482 -3.259200000000003 -5.6450999920284834 S-1.5456000000000012 -6.9216 -1.2714772927467478e-15 -6.9216 S1.9206711359107667 -6.417899992028486 3.2591999999999954 -5.645099992028487 S5.221481434834368 -4.799328864089231 5.9942814348343685 -3.460800000000003 S6.5184 -1.5456000000000014 6.5184 -1.5965475391124214e-15" fill="#fb5607" stroke-width="0">
    <animateTransform attributeName="transform" type="rotate" dur="10s" repeatCount="indefinite" values="0;60"></animateTransform>
  </path>
</g><g transform="translate(1597.1810019797567,-16.74824806576015) scale(100)" opacity="0.4">
  <path d="M7.82208 0 C7.82208 1.85472 8.120497721801245 2.546725363092925 7.1931377218012456 4.152959999999999 S5.517274636907075 5.846759990434181 3.9110400000000007 6.774119990434182 S1.8547200000000004 8.30592 5.085909170986992e-16 8.30592 S-2.3048053630929237 7.701479990434182 -3.911039999999998 6.7741199904341824 S-6.265777721801243 5.759194636907076 -7.193137721801244 4.152960000000003 S-7.82208 1.8547200000000008 -7.82208 9.579285234674527e-16 S-8.120497721801247 -2.546725363092923 -7.193137721801246 -4.1529599999999975 S-5.517274636907077 -5.84675999043418 -3.9110400000000034 -6.774119990434181 S-1.8547200000000015 -8.30592 -1.5257727512960975e-15 -8.30592 S2.3048053630929197 -7.7014799904341835 3.9110399999999945 -6.774119990434185 S6.265777721801242 -5.759194636907077 7.193137721801243 -4.152960000000004 S7.822079999999999 -1.854720000000002 7.82208 -1.9158570469349055e-15" fill="#fb5607" stroke-width="0">
    <animateTransform attributeName="transform" type="rotate" dur="5s" repeatCount="indefinite" values="0;60"></animateTransform>
  </path>
</g><g transform="translate(1852.0534027716594,-214.4475472920641) scale(100)" opacity="0.4">
  <path d="M10.950911999999999 0 C10.950911999999999 2.5966079999999994 11.36869681052174 3.5654155083300947 10.07039281052174 5.814143999999998 S7.724184491669903 8.185463986607854 5.475456 9.483767986607853 S2.5966080000000002 11.628287999999998 7.120272839381788e-16 11.628287999999998 S-3.2267275083300935 10.782071986607853 -5.475455999999997 9.483767986607853 S-8.772088810521739 8.062872491669905 -10.070392810521739 5.814144000000002 S-10.950911999999999 2.5966080000000007 -10.950911999999999 1.3410999328544339e-15 S-11.36869681052174 -3.5654155083300916 -10.070392810521742 -5.814143999999995 S-7.724184491669907 -8.18546398660785 -5.475456000000004 -9.483767986607852 S-2.5966080000000016 -11.628287999999998 -2.136081851814536e-15 -11.628287999999998 S3.226727508330088 -10.782071986607857 5.475455999999992 -9.483767986607859 S8.772088810521737 -8.062872491669907 10.070392810521737 -5.814144000000004 S10.950911999999999 -2.596608000000002 10.950911999999999 -2.6821998657088678e-15" fill="#fb5607" stroke-width="0">
    <animateTransform attributeName="transform" type="rotate" dur="3.3333333333333335s" repeatCount="indefinite" values="0;60"></animateTransform>
  </path>
</g></g>
</svg>