<!-- <?xml version="1.0" standalone="no"?> -->
<svg viewBox="0 0 200 200" xmlns="http://www.w3.org/2000/svg">
  <path fill="#F8F9FA" d="M45.6,-80.6C58.5,-71.6,67.8,-58.1,74.6,-43.9C81.3,-29.7,85.6,-14.8,86.7,0.6C87.8,16.1,85.7,32.2,78.5,45.6C71.3,59,58.9,69.8,44.9,77.6C31,85.5,15.5,90.5,-0.6,91.5C-16.7,92.5,-33.3,89.5,-46.8,81.4C-60.4,73.3,-70.8,60.1,-77.7,45.7C-84.7,31.2,-88.3,15.6,-88.3,0C-88.3,-15.6,-84.8,-31.3,-77.6,-45.4C-70.4,-59.5,-59.7,-72.1,-46.2,-80.7C-32.6,-89.3,-16.3,-93.9,0,-94C16.4,-94.1,32.8,-89.7,45.6,-80.6Z" transform="translate(100 100)" />
</svg>
