<!-- <svg id="visual" viewBox="0 0 900 600" width="900" height="600" xmlns="http://www.w3.org/2000/svg" xmlns:xlink="http://www.w3.org/1999/xlink" version="1.1"><rect x="0" y="0" width="900" height="600" fill="#f8f9fa"></rect><g transform="translate(499.4754320945982 286.2972082691417)"><path d="M124.5 -137.6C149.5 -99.5 149.7 -49.7 156.5 6.7C163.2 63.2 176.3 126.3 151.3 172.2C126.3 218 63.2 246.5 2.4 244.1C-58.5 241.8 -116.9 208.6 -166.9 162.7C-216.9 116.9 -258.5 58.5 -264.2 -5.8C-270 -70 -240 -140 -190 -178.2C-140 -216.3 -70 -222.7 -10.1 -212.5C49.7 -202.4 99.5 -175.8 124.5 -137.6" fill="#e8964a"></path></g></svg> -->
<!-- <svg id="visual" viewBox="0 0 900 600" width="2000" height="2000" xmlns="http://www.w3.org/2000/svg" xmlns:xlink="http://www.w3.org/1999/xlink" version="1.1"><rect x="0" y="0" width="900" height="600" fill="#f8f9fa"></rect><g transform="translate(499.4754320945982 286.2972082691417)"><path d="M124.5 -137.6C149.5 -99.5 149.7 -49.7 156.5 6.7C163.2 63.2 176.3 126.3 151.3 172.2C126.3 218 63.2 246.5 2.4 244.1C-58.5 241.8 -116.9 208.6 -166.9 162.7C-216.9 116.9 -258.5 58.5 -264.2 -5.8C-270 -70 -240 -140 -190 -178.2C-140 -216.3 -70 -222.7 -10.1 -212.5C49.7 -202.4 99.5 -175.8 124.5 -137.6" fill="#f97839"></path></g></svg> -->
<svg id="visual" viewBox="0 0 900 600" width="2000" height="2000" xmlns="http://www.w3.org/2000/svg" xmlns:xlink="http://www.w3.org/1999/xlink" version="1.1"><rect x="0" y="0" width="900" height="600" fill="none"></rect><g transform="translate(499.4754320945982 286.2972082691417)"><path d="M124.5 -137.6C149.5 -99.5 149.7 -49.7 156.5 6.7C163.2 63.2 176.3 126.3 151.3 172.2C126.3 218 63.2 246.5 2.4 244.1C-58.5 241.8 -116.9 208.6 -166.9 162.7C-216.9 116.9 -258.5 58.5 -264.2 -5.8C-270 -70 -240 -140 -190 -178.2C-140 -216.3 -70 -222.7 -10.1 -212.5C49.7 -202.4 99.5 -175.8 124.5 -137.6" fill="#f97839"></path></g></svg>